<mxfile host="Electron" modified="2024-01-14T12:04:29.764Z" agent="Mozilla/5.0 (X11; Linux x86_64) AppleWebKit/537.36 (KHTML, like Gecko) draw.io/22.1.18 Chrome/120.0.6099.199 Electron/28.1.2 Safari/537.36" etag="34RpSnl8MLTxLCtrQ0hd" version="22.1.18" type="device">
  <diagram name="Page-1" id="2YBvvXClWsGukQMizWep">
    <mxGraphModel dx="1872" dy="1253" grid="0" gridSize="10" guides="1" tooltips="1" connect="1" arrows="1" fold="1" page="0" pageScale="1" pageWidth="850" pageHeight="1100" math="0" shadow="0">
      <root>
        <mxCell id="0" />
        <mxCell id="1" parent="0" />
        <mxCell id="CqZ42TjIi4QTHKU0aI6U-181" value="" style="rounded=0;whiteSpace=wrap;html=1;" vertex="1" parent="1">
          <mxGeometry x="80" y="20" width="1000" height="750" as="geometry" />
        </mxCell>
        <mxCell id="aM9ryv3xv72pqoxQDRHE-1" value="MainThread:&lt;br&gt;listen()" style="shape=umlLifeline;perimeter=lifelinePerimeter;whiteSpace=wrap;html=1;container=0;dropTarget=0;collapsible=0;recursiveResize=0;outlineConnect=0;portConstraint=eastwest;newEdgeStyle={&quot;edgeStyle&quot;:&quot;elbowEdgeStyle&quot;,&quot;elbow&quot;:&quot;vertical&quot;,&quot;curved&quot;:0,&quot;rounded&quot;:0};fillColor=#2C4A42;" parent="1" vertex="1">
          <mxGeometry x="100" y="40" width="130" height="170" as="geometry" />
        </mxCell>
        <mxCell id="CqZ42TjIi4QTHKU0aI6U-3" value="" style="html=1;points=[[0,0,0,0,5],[0,1,0,0,-5],[1,0,0,0,5],[1,1,0,0,-5]];perimeter=orthogonalPerimeter;outlineConnect=0;targetShapes=umlLifeline;portConstraint=eastwest;newEdgeStyle={&quot;curved&quot;:0,&quot;rounded&quot;:0};" vertex="1" parent="aM9ryv3xv72pqoxQDRHE-1">
          <mxGeometry x="60" y="70" width="10" height="40" as="geometry" />
        </mxCell>
        <mxCell id="CqZ42TjIi4QTHKU0aI6U-4" value="waiting for&lt;br&gt;&amp;nbsp;requests" style="html=1;align=left;spacingLeft=2;endArrow=block;rounded=0;edgeStyle=orthogonalEdgeStyle;curved=0;rounded=0;" edge="1" target="CqZ42TjIi4QTHKU0aI6U-3" parent="aM9ryv3xv72pqoxQDRHE-1" source="CqZ42TjIi4QTHKU0aI6U-83">
          <mxGeometry relative="1" as="geometry">
            <mxPoint x="65" y="50" as="sourcePoint" />
            <Array as="points">
              <mxPoint x="95" y="80" />
            </Array>
          </mxGeometry>
        </mxCell>
        <mxCell id="CqZ42TjIi4QTHKU0aI6U-83" value="" style="rounded=0;whiteSpace=wrap;html=1;" vertex="1" parent="aM9ryv3xv72pqoxQDRHE-1">
          <mxGeometry x="60" y="45" width="10" height="10" as="geometry" />
        </mxCell>
        <mxCell id="aM9ryv3xv72pqoxQDRHE-5" value="PoolThread:&lt;br&gt;coap_format_filter()" style="shape=umlLifeline;perimeter=lifelinePerimeter;whiteSpace=wrap;html=1;container=0;dropTarget=0;collapsible=0;recursiveResize=0;outlineConnect=0;portConstraint=eastwest;newEdgeStyle={&quot;edgeStyle&quot;:&quot;elbowEdgeStyle&quot;,&quot;elbow&quot;:&quot;vertical&quot;,&quot;curved&quot;:0,&quot;rounded&quot;:0};fillColor=#2C4A42;" parent="1" vertex="1">
          <mxGeometry x="310" y="40" width="110" height="490" as="geometry" />
        </mxCell>
        <mxCell id="CqZ42TjIi4QTHKU0aI6U-6" value="" style="html=1;points=[[0,0,0,0,5],[0,1,0,0,-5],[1,0,0,0,5],[1,1,0,0,-5]];perimeter=orthogonalPerimeter;outlineConnect=0;targetShapes=umlLifeline;portConstraint=eastwest;newEdgeStyle={&quot;curved&quot;:0,&quot;rounded&quot;:0};" vertex="1" parent="aM9ryv3xv72pqoxQDRHE-5">
          <mxGeometry x="50" y="70" width="10" height="40" as="geometry" />
        </mxCell>
        <mxCell id="CqZ42TjIi4QTHKU0aI6U-7" value="waiting&lt;br&gt;to verify&lt;br&gt;content" style="html=1;align=left;spacingLeft=2;endArrow=block;rounded=0;edgeStyle=orthogonalEdgeStyle;curved=0;rounded=0;" edge="1" target="CqZ42TjIi4QTHKU0aI6U-6" parent="aM9ryv3xv72pqoxQDRHE-5">
          <mxGeometry relative="1" as="geometry">
            <mxPoint x="55" y="50" as="sourcePoint" />
            <Array as="points">
              <mxPoint x="85" y="80" />
            </Array>
          </mxGeometry>
        </mxCell>
        <mxCell id="CqZ42TjIi4QTHKU0aI6U-1" value="PoolThread:&lt;br&gt;handle_transactions()" style="shape=umlLifeline;perimeter=lifelinePerimeter;whiteSpace=wrap;html=1;container=0;dropTarget=0;collapsible=0;recursiveResize=0;outlineConnect=0;portConstraint=eastwest;newEdgeStyle={&quot;edgeStyle&quot;:&quot;elbowEdgeStyle&quot;,&quot;elbow&quot;:&quot;vertical&quot;,&quot;curved&quot;:0,&quot;rounded&quot;:0};fillColor=#2C4A42;" vertex="1" parent="1">
          <mxGeometry x="452" y="40" width="130" height="180" as="geometry" />
        </mxCell>
        <mxCell id="CqZ42TjIi4QTHKU0aI6U-8" value="" style="html=1;points=[[0,0,0,0,5],[0,1,0,0,-5],[1,0,0,0,5],[1,1,0,0,-5]];perimeter=orthogonalPerimeter;outlineConnect=0;targetShapes=umlLifeline;portConstraint=eastwest;newEdgeStyle={&quot;curved&quot;:0,&quot;rounded&quot;:0};" vertex="1" parent="CqZ42TjIi4QTHKU0aI6U-1">
          <mxGeometry x="60" y="70" width="10" height="40" as="geometry" />
        </mxCell>
        <mxCell id="CqZ42TjIi4QTHKU0aI6U-2" value="PoolThread:&lt;br&gt;handle_workers()" style="shape=umlLifeline;perimeter=lifelinePerimeter;whiteSpace=wrap;html=1;container=0;dropTarget=0;collapsible=0;recursiveResize=0;outlineConnect=0;portConstraint=eastwest;newEdgeStyle={&quot;edgeStyle&quot;:&quot;elbowEdgeStyle&quot;,&quot;elbow&quot;:&quot;vertical&quot;,&quot;curved&quot;:0,&quot;rounded&quot;:0};fillColor=#2C4A42;" vertex="1" parent="1">
          <mxGeometry x="599" y="40" width="112.75" height="180" as="geometry" />
        </mxCell>
        <mxCell id="CqZ42TjIi4QTHKU0aI6U-26" value="" style="html=1;points=[[0,0,0,0,5],[0,1,0,0,-5],[1,0,0,0,5],[1,1,0,0,-5]];perimeter=orthogonalPerimeter;outlineConnect=0;targetShapes=umlLifeline;portConstraint=eastwest;newEdgeStyle={&quot;curved&quot;:0,&quot;rounded&quot;:0};" vertex="1" parent="CqZ42TjIi4QTHKU0aI6U-2">
          <mxGeometry x="51.25" y="70" width="10" height="40" as="geometry" />
        </mxCell>
        <mxCell id="CqZ42TjIi4QTHKU0aI6U-34" value="Handle Workers" style="rounded=0;whiteSpace=wrap;html=1;fillColor=#2C4A42;" vertex="1" parent="CqZ42TjIi4QTHKU0aI6U-2">
          <mxGeometry x="10" y="130" width="90" height="20" as="geometry" />
        </mxCell>
        <mxCell id="CqZ42TjIi4QTHKU0aI6U-37" value="wait 60 &lt;br&gt;seconds" style="html=1;align=left;spacingLeft=2;endArrow=block;rounded=0;edgeStyle=orthogonalEdgeStyle;curved=0;rounded=0;" edge="1" parent="CqZ42TjIi4QTHKU0aI6U-2">
          <mxGeometry relative="1" as="geometry">
            <mxPoint x="57.25" y="50" as="sourcePoint" />
            <Array as="points">
              <mxPoint x="87.25" y="50" />
              <mxPoint x="87.25" y="80" />
            </Array>
            <mxPoint x="62.25" y="80" as="targetPoint" />
          </mxGeometry>
        </mxCell>
        <mxCell id="CqZ42TjIi4QTHKU0aI6U-10" value="Solve Transactions" style="rounded=0;whiteSpace=wrap;html=1;fillColor=#5356D4;" vertex="1" parent="1">
          <mxGeometry x="462" y="170" width="110" height="20" as="geometry" />
        </mxCell>
        <mxCell id="CqZ42TjIi4QTHKU0aI6U-23" value="wait 1&lt;br&gt;&amp;nbsp;second" style="html=1;align=left;spacingLeft=2;endArrow=block;rounded=0;edgeStyle=orthogonalEdgeStyle;curved=0;rounded=0;" edge="1" parent="1">
          <mxGeometry relative="1" as="geometry">
            <mxPoint x="518" y="90" as="sourcePoint" />
            <Array as="points">
              <mxPoint x="548" y="90" />
              <mxPoint x="548" y="120" />
            </Array>
            <mxPoint x="523" y="120" as="targetPoint" />
          </mxGeometry>
        </mxCell>
        <mxCell id="CqZ42TjIi4QTHKU0aI6U-47" value="request/response" style="html=1;verticalAlign=bottom;endArrow=block;curved=0;rounded=0;entryX=0;entryY=0.5;entryDx=0;entryDy=0;" edge="1" parent="1" target="CqZ42TjIi4QTHKU0aI6U-78">
          <mxGeometry x="-0.3333" width="80" relative="1" as="geometry">
            <mxPoint x="40" y="170" as="sourcePoint" />
            <mxPoint x="60" y="170" as="targetPoint" />
            <mxPoint as="offset" />
          </mxGeometry>
        </mxCell>
        <mxCell id="CqZ42TjIi4QTHKU0aI6U-48" value="" style="rounded=0;whiteSpace=wrap;html=1;" vertex="1" parent="1">
          <mxGeometry x="220" y="160" width="80" height="20" as="geometry" />
        </mxCell>
        <mxCell id="CqZ42TjIi4QTHKU0aI6U-49" value="&lt;font style=&quot;font-size: 9px;&quot;&gt;Receive queue&lt;/font&gt;" style="text;align=center;fontStyle=1;verticalAlign=middle;spacingLeft=3;spacingRight=3;strokeColor=none;rotatable=0;points=[[0,0.5],[1,0.5]];portConstraint=eastwest;html=1;" vertex="1" parent="1">
          <mxGeometry x="220" y="144" width="80" height="16" as="geometry" />
        </mxCell>
        <mxCell id="CqZ42TjIi4QTHKU0aI6U-50" value="" style="rounded=0;whiteSpace=wrap;html=1;fillColor=#76608A;" vertex="1" parent="1">
          <mxGeometry x="290" y="160" width="10" height="20" as="geometry" />
        </mxCell>
        <mxCell id="CqZ42TjIi4QTHKU0aI6U-51" value="" style="rounded=0;whiteSpace=wrap;html=1;fillColor=#76608A;" vertex="1" parent="1">
          <mxGeometry x="280" y="160" width="10" height="20" as="geometry" />
        </mxCell>
        <mxCell id="CqZ42TjIi4QTHKU0aI6U-52" value="" style="rounded=0;whiteSpace=wrap;html=1;fillColor=#76608A;" vertex="1" parent="1">
          <mxGeometry x="270" y="160" width="10" height="20" as="geometry" />
        </mxCell>
        <mxCell id="CqZ42TjIi4QTHKU0aI6U-54" value="" style="rounded=0;whiteSpace=wrap;html=1;fillColor=#76608A;" vertex="1" parent="1">
          <mxGeometry x="260" y="160" width="10" height="20" as="geometry" />
        </mxCell>
        <mxCell id="CqZ42TjIi4QTHKU0aI6U-55" value="" style="rounded=0;whiteSpace=wrap;html=1;fillColor=#76608A;" vertex="1" parent="1">
          <mxGeometry x="250" y="160" width="10" height="20" as="geometry" />
        </mxCell>
        <mxCell id="CqZ42TjIi4QTHKU0aI6U-57" value="put" style="html=1;verticalAlign=bottom;endArrow=block;curved=0;rounded=0;exitX=1;exitY=0.5;exitDx=0;exitDy=0;" edge="1" parent="1" source="CqZ42TjIi4QTHKU0aI6U-78">
          <mxGeometry width="80" relative="1" as="geometry">
            <mxPoint x="180" y="170" as="sourcePoint" />
            <mxPoint x="220" y="170" as="targetPoint" />
          </mxGeometry>
        </mxCell>
        <mxCell id="CqZ42TjIi4QTHKU0aI6U-58" value="get" style="html=1;verticalAlign=bottom;endArrow=block;curved=0;rounded=0;exitX=1;exitY=0.5;exitDx=0;exitDy=0;" edge="1" parent="1" source="CqZ42TjIi4QTHKU0aI6U-50" target="aM9ryv3xv72pqoxQDRHE-5">
          <mxGeometry width="80" relative="1" as="geometry">
            <mxPoint x="175" y="180" as="sourcePoint" />
            <mxPoint x="230" y="180" as="targetPoint" />
          </mxGeometry>
        </mxCell>
        <mxCell id="CqZ42TjIi4QTHKU0aI6U-59" value="Decode" style="rounded=0;whiteSpace=wrap;html=1;fillColor=#76608A;" vertex="1" parent="1">
          <mxGeometry x="340" y="190" width="50" height="20" as="geometry" />
        </mxCell>
        <mxCell id="CqZ42TjIi4QTHKU0aI6U-61" value="&lt;font style=&quot;font-size: 10px;&quot;&gt;Coap&lt;br&gt;Filter&lt;/font&gt;" style="strokeWidth=2;html=1;shape=mxgraph.flowchart.decision;whiteSpace=wrap;fillColor=#2C4A42;" vertex="1" parent="1">
          <mxGeometry x="330" y="230" width="70" height="40" as="geometry" />
        </mxCell>
        <mxCell id="CqZ42TjIi4QTHKU0aI6U-66" style="edgeStyle=orthogonalEdgeStyle;rounded=0;orthogonalLoop=1;jettySize=auto;html=1;entryX=1;entryY=0.5;entryDx=0;entryDy=0;exitX=0;exitY=0.5;exitDx=0;exitDy=0;exitPerimeter=0;" edge="1" parent="1" source="CqZ42TjIi4QTHKU0aI6U-61" target="CqZ42TjIi4QTHKU0aI6U-64">
          <mxGeometry relative="1" as="geometry">
            <mxPoint x="450" y="260" as="sourcePoint" />
            <mxPoint x="420" y="280" as="targetPoint" />
            <Array as="points">
              <mxPoint x="280" y="250" />
              <mxPoint x="280" y="250" />
            </Array>
          </mxGeometry>
        </mxCell>
        <mxCell id="CqZ42TjIi4QTHKU0aI6U-67" value="&lt;font style=&quot;font-size: 9px;&quot;&gt;NOK&lt;/font&gt;" style="edgeLabel;html=1;align=center;verticalAlign=middle;resizable=0;points=[];" vertex="1" connectable="0" parent="CqZ42TjIi4QTHKU0aI6U-66">
          <mxGeometry x="0.0133" y="-1" relative="1" as="geometry">
            <mxPoint x="5" y="1" as="offset" />
          </mxGeometry>
        </mxCell>
        <mxCell id="CqZ42TjIi4QTHKU0aI6U-70" value="dispatch" style="html=1;verticalAlign=bottom;startArrow=oval;startFill=1;endArrow=block;startSize=8;curved=0;rounded=0;exitX=0;exitY=0.5;exitDx=0;exitDy=0;" edge="1" parent="1" source="CqZ42TjIi4QTHKU0aI6U-64">
          <mxGeometry x="0.2222" width="60" relative="1" as="geometry">
            <mxPoint x="280" y="290" as="sourcePoint" />
            <mxPoint x="40" y="250" as="targetPoint" />
            <Array as="points">
              <mxPoint x="140" y="250" />
            </Array>
            <mxPoint as="offset" />
          </mxGeometry>
        </mxCell>
        <mxCell id="CqZ42TjIi4QTHKU0aI6U-73" style="edgeStyle=orthogonalEdgeStyle;rounded=0;orthogonalLoop=1;jettySize=auto;html=1;entryX=0;entryY=0.5;entryDx=0;entryDy=0;" edge="1" parent="1" source="CqZ42TjIi4QTHKU0aI6U-10" target="CqZ42TjIi4QTHKU0aI6U-74">
          <mxGeometry relative="1" as="geometry">
            <Array as="points">
              <mxPoint x="452" y="180" />
              <mxPoint x="452" y="90" />
            </Array>
          </mxGeometry>
        </mxCell>
        <mxCell id="CqZ42TjIi4QTHKU0aI6U-74" value="" style="rounded=0;whiteSpace=wrap;html=1;" vertex="1" parent="1">
          <mxGeometry x="512" y="85" width="10" height="10" as="geometry" />
        </mxCell>
        <mxCell id="CqZ42TjIi4QTHKU0aI6U-75" value="" style="rounded=0;whiteSpace=wrap;html=1;" vertex="1" parent="1">
          <mxGeometry x="650.38" y="85" width="10" height="10" as="geometry" />
        </mxCell>
        <mxCell id="CqZ42TjIi4QTHKU0aI6U-76" style="edgeStyle=orthogonalEdgeStyle;rounded=0;orthogonalLoop=1;jettySize=auto;html=1;entryX=0;entryY=0.5;entryDx=0;entryDy=0;exitX=0;exitY=0.25;exitDx=0;exitDy=0;" edge="1" parent="1" source="CqZ42TjIi4QTHKU0aI6U-90" target="CqZ42TjIi4QTHKU0aI6U-75">
          <mxGeometry relative="1" as="geometry">
            <mxPoint x="588.97" y="185" as="sourcePoint" />
            <mxPoint x="638.97" y="95" as="targetPoint" />
            <Array as="points">
              <mxPoint x="599" y="90" />
            </Array>
          </mxGeometry>
        </mxCell>
        <mxCell id="CqZ42TjIi4QTHKU0aI6U-78" value="" style="rounded=0;whiteSpace=wrap;html=1;" vertex="1" parent="1">
          <mxGeometry x="160" y="165" width="10" height="10" as="geometry" />
        </mxCell>
        <mxCell id="CqZ42TjIi4QTHKU0aI6U-82" value="" style="rounded=0;whiteSpace=wrap;html=1;" vertex="1" parent="1">
          <mxGeometry x="160" y="195" width="10" height="10" as="geometry" />
        </mxCell>
        <mxCell id="CqZ42TjIi4QTHKU0aI6U-85" style="edgeStyle=orthogonalEdgeStyle;rounded=0;orthogonalLoop=1;jettySize=auto;html=1;entryX=-0.267;entryY=0.452;entryDx=0;entryDy=0;entryPerimeter=0;exitX=0;exitY=0.5;exitDx=0;exitDy=0;" edge="1" parent="1" source="CqZ42TjIi4QTHKU0aI6U-82" target="CqZ42TjIi4QTHKU0aI6U-83">
          <mxGeometry relative="1" as="geometry">
            <mxPoint x="100" y="180" as="sourcePoint" />
            <mxPoint x="150" y="90" as="targetPoint" />
            <Array as="points">
              <mxPoint x="130" y="200" />
              <mxPoint x="130" y="90" />
            </Array>
          </mxGeometry>
        </mxCell>
        <mxCell id="CqZ42TjIi4QTHKU0aI6U-87" value="Repeat" style="edgeLabel;html=1;align=center;verticalAlign=middle;resizable=0;points=[];" vertex="1" connectable="0" parent="CqZ42TjIi4QTHKU0aI6U-85">
          <mxGeometry x="0.1237" relative="1" as="geometry">
            <mxPoint as="offset" />
          </mxGeometry>
        </mxCell>
        <mxCell id="CqZ42TjIi4QTHKU0aI6U-88" value="&lt;span style=&quot;color: rgb(240, 240, 240); font-family: Helvetica; font-size: 11px; font-style: normal; font-variant-ligatures: normal; font-variant-caps: normal; font-weight: 400; letter-spacing: normal; orphans: 2; text-align: center; text-indent: 0px; text-transform: none; widows: 2; word-spacing: 0px; -webkit-text-stroke-width: 0px; background-color: rgb(24, 20, 29); text-decoration-thickness: initial; text-decoration-style: initial; text-decoration-color: initial; float: none; display: inline !important;&quot;&gt;Repeat&lt;/span&gt;" style="text;whiteSpace=wrap;html=1;" vertex="1" parent="1">
          <mxGeometry x="432" y="120" width="70" height="40" as="geometry" />
        </mxCell>
        <mxCell id="CqZ42TjIi4QTHKU0aI6U-64" value="RST" style="rounded=0;whiteSpace=wrap;html=1;fillColor=#76608A;" vertex="1" parent="1">
          <mxGeometry x="220" y="240" width="60" height="20" as="geometry" />
        </mxCell>
        <mxCell id="CqZ42TjIi4QTHKU0aI6U-100" style="edgeStyle=orthogonalEdgeStyle;rounded=0;orthogonalLoop=1;jettySize=auto;html=1;entryX=0;entryY=0.5;entryDx=0;entryDy=0;exitX=1;exitY=0.25;exitDx=0;exitDy=0;" edge="1" parent="1" source="CqZ42TjIi4QTHKU0aI6U-93" target="CqZ42TjIi4QTHKU0aI6U-94">
          <mxGeometry relative="1" as="geometry">
            <Array as="points">
              <mxPoint x="397" y="301" />
              <mxPoint x="437" y="301" />
              <mxPoint x="437" y="300" />
            </Array>
          </mxGeometry>
        </mxCell>
        <mxCell id="CqZ42TjIi4QTHKU0aI6U-102" style="edgeStyle=orthogonalEdgeStyle;rounded=0;orthogonalLoop=1;jettySize=auto;html=1;entryX=0;entryY=0.5;entryDx=0;entryDy=0;exitX=1;exitY=0.75;exitDx=0;exitDy=0;" edge="1" parent="1" source="CqZ42TjIi4QTHKU0aI6U-93" target="CqZ42TjIi4QTHKU0aI6U-96">
          <mxGeometry relative="1" as="geometry">
            <Array as="points">
              <mxPoint x="397" y="340" />
            </Array>
          </mxGeometry>
        </mxCell>
        <mxCell id="CqZ42TjIi4QTHKU0aI6U-184" style="edgeStyle=orthogonalEdgeStyle;rounded=0;orthogonalLoop=1;jettySize=auto;html=1;exitX=0.5;exitY=1;exitDx=0;exitDy=0;entryX=0.5;entryY=0;entryDx=0;entryDy=0;" edge="1" parent="1" source="CqZ42TjIi4QTHKU0aI6U-93" target="CqZ42TjIi4QTHKU0aI6U-95">
          <mxGeometry relative="1" as="geometry" />
        </mxCell>
        <mxCell id="CqZ42TjIi4QTHKU0aI6U-93" value="Message&lt;br&gt;Type" style="shape=hexagon;perimeter=hexagonPerimeter2;whiteSpace=wrap;html=1;fixedSize=1;strokeWidth=2;fillColor=#76608A;" vertex="1" parent="1">
          <mxGeometry x="325" y="300" width="80" height="40" as="geometry" />
        </mxCell>
        <mxCell id="CqZ42TjIi4QTHKU0aI6U-99" style="edgeStyle=orthogonalEdgeStyle;rounded=0;orthogonalLoop=1;jettySize=auto;html=1;exitX=1;exitY=0.5;exitDx=0;exitDy=0;entryX=0;entryY=0.5;entryDx=0;entryDy=0;" edge="1" parent="1" source="CqZ42TjIi4QTHKU0aI6U-94" target="CqZ42TjIi4QTHKU0aI6U-98">
          <mxGeometry relative="1" as="geometry">
            <Array as="points">
              <mxPoint x="522" y="300" />
              <mxPoint x="522" y="300" />
            </Array>
          </mxGeometry>
        </mxCell>
        <mxCell id="CqZ42TjIi4QTHKU0aI6U-94" value="ACK" style="rounded=0;whiteSpace=wrap;html=1;fillColor=#76608A;" vertex="1" parent="1">
          <mxGeometry x="440" y="290" width="60" height="20" as="geometry" />
        </mxCell>
        <mxCell id="CqZ42TjIi4QTHKU0aI6U-105" style="edgeStyle=orthogonalEdgeStyle;rounded=0;orthogonalLoop=1;jettySize=auto;html=1;exitX=0.5;exitY=1;exitDx=0;exitDy=0;entryX=0.5;entryY=0;entryDx=0;entryDy=0;" edge="1" parent="1" source="CqZ42TjIi4QTHKU0aI6U-95" target="CqZ42TjIi4QTHKU0aI6U-104">
          <mxGeometry relative="1" as="geometry" />
        </mxCell>
        <mxCell id="CqZ42TjIi4QTHKU0aI6U-95" value="CON" style="rounded=0;whiteSpace=wrap;html=1;fillColor=#76608A;" vertex="1" parent="1">
          <mxGeometry x="335" y="370" width="60" height="20" as="geometry" />
        </mxCell>
        <mxCell id="CqZ42TjIi4QTHKU0aI6U-96" value="RST" style="rounded=0;whiteSpace=wrap;html=1;fillColor=#76608A;" vertex="1" parent="1">
          <mxGeometry x="440" y="330" width="60" height="20" as="geometry" />
        </mxCell>
        <mxCell id="CqZ42TjIi4QTHKU0aI6U-97" value="&lt;font style=&quot;font-size: 9px;&quot;&gt;FINISH OVERALL TRANSACTION&lt;/font&gt;" style="rounded=0;whiteSpace=wrap;html=1;fillColor=#5356D4;" vertex="1" parent="1">
          <mxGeometry x="530" y="330" width="146" height="20" as="geometry" />
        </mxCell>
        <mxCell id="CqZ42TjIi4QTHKU0aI6U-98" value="&lt;font style=&quot;font-size: 9px;&quot;&gt;FINISH&amp;nbsp; TRANSACTION&lt;/font&gt;" style="rounded=0;whiteSpace=wrap;html=1;strokeColor=default;fillColor=#5356D4;" vertex="1" parent="1">
          <mxGeometry x="530" y="290" width="128" height="20" as="geometry" />
        </mxCell>
        <mxCell id="CqZ42TjIi4QTHKU0aI6U-103" style="edgeStyle=orthogonalEdgeStyle;rounded=0;orthogonalLoop=1;jettySize=auto;html=1;exitX=1;exitY=0.5;exitDx=0;exitDy=0;entryX=0;entryY=0.5;entryDx=0;entryDy=0;" edge="1" parent="1" source="CqZ42TjIi4QTHKU0aI6U-96" target="CqZ42TjIi4QTHKU0aI6U-97">
          <mxGeometry relative="1" as="geometry">
            <Array as="points">
              <mxPoint x="520" y="340" />
              <mxPoint x="520" y="340" />
            </Array>
          </mxGeometry>
        </mxCell>
        <mxCell id="CqZ42TjIi4QTHKU0aI6U-104" value="SEND ACK" style="rounded=0;whiteSpace=wrap;html=1;fillColor=#76608A;" vertex="1" parent="1">
          <mxGeometry x="335" y="440" width="60" height="30" as="geometry" />
        </mxCell>
        <mxCell id="CqZ42TjIi4QTHKU0aI6U-106" value="dispatch" style="html=1;verticalAlign=bottom;startArrow=oval;startFill=1;endArrow=block;startSize=8;curved=0;rounded=0;exitX=0;exitY=0.5;exitDx=0;exitDy=0;" edge="1" parent="1" source="CqZ42TjIi4QTHKU0aI6U-175">
          <mxGeometry width="60" relative="1" as="geometry">
            <mxPoint x="230" y="260" as="sourcePoint" />
            <mxPoint x="40" y="455" as="targetPoint" />
            <Array as="points" />
          </mxGeometry>
        </mxCell>
        <mxCell id="CqZ42TjIi4QTHKU0aI6U-107" value="CHOOSE WORKER" style="rounded=0;whiteSpace=wrap;html=1;fillColor=#2C4A42;" vertex="1" parent="1">
          <mxGeometry x="310" y="490" width="120" height="20" as="geometry" />
        </mxCell>
        <mxCell id="CqZ42TjIi4QTHKU0aI6U-109" value="" style="rounded=0;whiteSpace=wrap;html=1;" vertex="1" parent="1">
          <mxGeometry x="470" y="490" width="80" height="20" as="geometry" />
        </mxCell>
        <mxCell id="CqZ42TjIi4QTHKU0aI6U-110" value="&lt;font style=&quot;font-size: 9px;&quot;&gt;Receive queue 1&lt;/font&gt;" style="text;align=center;fontStyle=1;verticalAlign=middle;spacingLeft=3;spacingRight=3;strokeColor=none;rotatable=0;points=[[0,0.5],[1,0.5]];portConstraint=eastwest;html=1;" vertex="1" parent="1">
          <mxGeometry x="470" y="474" width="80" height="16" as="geometry" />
        </mxCell>
        <mxCell id="CqZ42TjIi4QTHKU0aI6U-111" value="" style="rounded=0;whiteSpace=wrap;html=1;fillColor=#76608A;" vertex="1" parent="1">
          <mxGeometry x="540" y="490" width="10" height="20" as="geometry" />
        </mxCell>
        <mxCell id="CqZ42TjIi4QTHKU0aI6U-112" value="" style="rounded=0;whiteSpace=wrap;html=1;fillColor=#76608A;" vertex="1" parent="1">
          <mxGeometry x="530" y="490" width="10" height="20" as="geometry" />
        </mxCell>
        <mxCell id="CqZ42TjIi4QTHKU0aI6U-113" value="" style="rounded=0;whiteSpace=wrap;html=1;fillColor=#76608A;" vertex="1" parent="1">
          <mxGeometry x="520" y="490" width="10" height="20" as="geometry" />
        </mxCell>
        <mxCell id="CqZ42TjIi4QTHKU0aI6U-161" style="edgeStyle=orthogonalEdgeStyle;rounded=0;orthogonalLoop=1;jettySize=auto;html=1;exitX=0.5;exitY=1;exitDx=0;exitDy=0;entryX=0.5;entryY=0;entryDx=0;entryDy=0;endArrow=none;endFill=0;dashed=1;dashPattern=1 1;" edge="1" parent="1" source="CqZ42TjIi4QTHKU0aI6U-114" target="CqZ42TjIi4QTHKU0aI6U-155">
          <mxGeometry relative="1" as="geometry" />
        </mxCell>
        <mxCell id="CqZ42TjIi4QTHKU0aI6U-162" value="&lt;font style=&quot;font-size: 9px;&quot;&gt;MULTIPLE&lt;/font&gt;" style="edgeLabel;html=1;align=center;verticalAlign=middle;resizable=0;points=[];" vertex="1" connectable="0" parent="CqZ42TjIi4QTHKU0aI6U-161">
          <mxGeometry y="-1" relative="1" as="geometry">
            <mxPoint as="offset" />
          </mxGeometry>
        </mxCell>
        <mxCell id="CqZ42TjIi4QTHKU0aI6U-114" value="" style="rounded=0;whiteSpace=wrap;html=1;fillColor=#76608A;" vertex="1" parent="1">
          <mxGeometry x="510" y="490" width="10" height="20" as="geometry" />
        </mxCell>
        <mxCell id="CqZ42TjIi4QTHKU0aI6U-115" value="" style="rounded=0;whiteSpace=wrap;html=1;fillColor=#76608A;" vertex="1" parent="1">
          <mxGeometry x="500" y="490" width="10" height="20" as="geometry" />
        </mxCell>
        <mxCell id="CqZ42TjIi4QTHKU0aI6U-124" value="put" style="html=1;verticalAlign=bottom;endArrow=block;curved=0;rounded=0;exitX=1;exitY=0.5;exitDx=0;exitDy=0;entryX=0;entryY=0.5;entryDx=0;entryDy=0;" edge="1" parent="1" source="CqZ42TjIi4QTHKU0aI6U-107" target="CqZ42TjIi4QTHKU0aI6U-109">
          <mxGeometry width="80" relative="1" as="geometry">
            <mxPoint x="420" y="474" as="sourcePoint" />
            <mxPoint x="470" y="474" as="targetPoint" />
          </mxGeometry>
        </mxCell>
        <mxCell id="CqZ42TjIi4QTHKU0aI6U-125" value="WorkerThread N:&lt;br&gt;run()" style="shape=umlLifeline;perimeter=lifelinePerimeter;whiteSpace=wrap;html=1;container=0;dropTarget=0;collapsible=0;recursiveResize=0;outlineConnect=0;portConstraint=eastwest;newEdgeStyle={&quot;edgeStyle&quot;:&quot;elbowEdgeStyle&quot;,&quot;elbow&quot;:&quot;vertical&quot;,&quot;curved&quot;:0,&quot;rounded&quot;:0};fillColor=#2C4A42;" vertex="1" parent="1">
          <mxGeometry x="729" y="40" width="112.75" height="730" as="geometry" />
        </mxCell>
        <mxCell id="CqZ42TjIi4QTHKU0aI6U-126" value="" style="html=1;points=[[0,0,0,0,5],[0,1,0,0,-5],[1,0,0,0,5],[1,1,0,0,-5]];perimeter=orthogonalPerimeter;outlineConnect=0;targetShapes=umlLifeline;portConstraint=eastwest;newEdgeStyle={&quot;curved&quot;:0,&quot;rounded&quot;:0};" vertex="1" parent="CqZ42TjIi4QTHKU0aI6U-125">
          <mxGeometry x="51.25" y="70" width="10" height="340" as="geometry" />
        </mxCell>
        <mxCell id="CqZ42TjIi4QTHKU0aI6U-128" value="wait for &lt;br&gt;tasks" style="html=1;align=left;spacingLeft=2;endArrow=block;rounded=0;edgeStyle=orthogonalEdgeStyle;curved=0;rounded=0;entryX=1;entryY=1;entryDx=0;entryDy=-5;entryPerimeter=0;" edge="1" parent="CqZ42TjIi4QTHKU0aI6U-125" target="CqZ42TjIi4QTHKU0aI6U-126">
          <mxGeometry relative="1" as="geometry">
            <mxPoint x="57.25" y="50" as="sourcePoint" />
            <Array as="points">
              <mxPoint x="87" y="50" />
              <mxPoint x="87" y="405" />
            </Array>
            <mxPoint x="62.25" y="80" as="targetPoint" />
          </mxGeometry>
        </mxCell>
        <mxCell id="CqZ42TjIi4QTHKU0aI6U-173" style="edgeStyle=orthogonalEdgeStyle;rounded=0;orthogonalLoop=1;jettySize=auto;html=1;exitX=1;exitY=0;exitDx=0;exitDy=0;entryX=0;entryY=0;entryDx=0;entryDy=0;endArrow=none;endFill=0;dashed=1;dashPattern=1 1;" edge="1" parent="1" source="CqZ42TjIi4QTHKU0aI6U-129" target="CqZ42TjIi4QTHKU0aI6U-167">
          <mxGeometry relative="1" as="geometry">
            <Array as="points">
              <mxPoint x="890" y="85" />
              <mxPoint x="890" y="85" />
            </Array>
          </mxGeometry>
        </mxCell>
        <mxCell id="CqZ42TjIi4QTHKU0aI6U-174" value="MULTIPLE" style="edgeLabel;html=1;align=center;verticalAlign=middle;resizable=0;points=[];" vertex="1" connectable="0" parent="CqZ42TjIi4QTHKU0aI6U-173">
          <mxGeometry x="0.0681" relative="1" as="geometry">
            <mxPoint as="offset" />
          </mxGeometry>
        </mxCell>
        <mxCell id="CqZ42TjIi4QTHKU0aI6U-129" value="" style="rounded=0;whiteSpace=wrap;html=1;" vertex="1" parent="1">
          <mxGeometry x="780.38" y="85" width="10" height="10" as="geometry" />
        </mxCell>
        <mxCell id="CqZ42TjIi4QTHKU0aI6U-132" value="" style="edgeStyle=orthogonalEdgeStyle;rounded=0;orthogonalLoop=1;jettySize=auto;html=1;entryX=0;entryY=0.5;entryDx=0;entryDy=0;exitX=0;exitY=0.25;exitDx=0;exitDy=0;" edge="1" parent="1" source="CqZ42TjIi4QTHKU0aI6U-34" target="CqZ42TjIi4QTHKU0aI6U-90">
          <mxGeometry relative="1" as="geometry">
            <mxPoint x="609" y="175" as="sourcePoint" />
            <mxPoint x="650" y="90" as="targetPoint" />
            <Array as="points">
              <mxPoint x="609" y="180" />
              <mxPoint x="599" y="180" />
            </Array>
          </mxGeometry>
        </mxCell>
        <mxCell id="CqZ42TjIi4QTHKU0aI6U-90" value="&lt;span style=&quot;color: rgb(240, 240, 240); font-family: Helvetica; font-size: 11px; font-style: normal; font-variant-ligatures: normal; font-variant-caps: normal; font-weight: 400; letter-spacing: normal; orphans: 2; text-align: center; text-indent: 0px; text-transform: none; widows: 2; word-spacing: 0px; -webkit-text-stroke-width: 0px; background-color: rgb(24, 20, 29); text-decoration-thickness: initial; text-decoration-style: initial; text-decoration-color: initial; float: none; display: inline !important;&quot;&gt;Repeat&lt;/span&gt;" style="text;whiteSpace=wrap;html=1;" vertex="1" parent="1">
          <mxGeometry x="580.25" y="120" width="70" height="40" as="geometry" />
        </mxCell>
        <mxCell id="CqZ42TjIi4QTHKU0aI6U-133" value="get" style="html=1;verticalAlign=bottom;endArrow=block;curved=0;rounded=0;exitX=1;exitY=0.5;exitDx=0;exitDy=0;" edge="1" parent="1" source="CqZ42TjIi4QTHKU0aI6U-111" target="CqZ42TjIi4QTHKU0aI6U-125">
          <mxGeometry width="80" relative="1" as="geometry">
            <mxPoint x="440" y="510" as="sourcePoint" />
            <mxPoint x="480" y="510" as="targetPoint" />
          </mxGeometry>
        </mxCell>
        <mxCell id="CqZ42TjIi4QTHKU0aI6U-135" value="&lt;font style=&quot;font-size: 9px;&quot;&gt;Select&lt;br&gt;Resource&lt;/font&gt;" style="strokeWidth=2;html=1;shape=mxgraph.flowchart.decision;whiteSpace=wrap;fillColor=#785632;" vertex="1" parent="1">
          <mxGeometry x="743.07" y="590" width="84.62" height="50" as="geometry" />
        </mxCell>
        <mxCell id="CqZ42TjIi4QTHKU0aI6U-141" style="edgeStyle=orthogonalEdgeStyle;rounded=0;orthogonalLoop=1;jettySize=auto;html=1;entryX=1;entryY=0.5;entryDx=0;entryDy=0;exitX=0;exitY=0.5;exitDx=0;exitDy=0;exitPerimeter=0;" edge="1" parent="1" target="CqZ42TjIi4QTHKU0aI6U-144" source="CqZ42TjIi4QTHKU0aI6U-135">
          <mxGeometry relative="1" as="geometry">
            <mxPoint x="732" y="615" as="sourcePoint" />
            <mxPoint x="822" y="645" as="targetPoint" />
            <Array as="points" />
          </mxGeometry>
        </mxCell>
        <mxCell id="CqZ42TjIi4QTHKU0aI6U-142" value="&lt;font style=&quot;font-size: 9px;&quot;&gt;NOK&lt;/font&gt;" style="edgeLabel;html=1;align=center;verticalAlign=middle;resizable=0;points=[];" vertex="1" connectable="0" parent="CqZ42TjIi4QTHKU0aI6U-141">
          <mxGeometry x="0.0133" y="-1" relative="1" as="geometry">
            <mxPoint x="5" y="1" as="offset" />
          </mxGeometry>
        </mxCell>
        <mxCell id="CqZ42TjIi4QTHKU0aI6U-143" value="dispatch" style="html=1;verticalAlign=bottom;startArrow=oval;startFill=1;endArrow=block;startSize=8;curved=0;rounded=0;exitX=0;exitY=0.5;exitDx=0;exitDy=0;" edge="1" parent="1" source="CqZ42TjIi4QTHKU0aI6U-177">
          <mxGeometry width="60" relative="1" as="geometry">
            <mxPoint x="682" y="655" as="sourcePoint" />
            <mxPoint x="40" y="650" as="targetPoint" />
            <Array as="points" />
          </mxGeometry>
        </mxCell>
        <mxCell id="CqZ42TjIi4QTHKU0aI6U-144" value="RST" style="rounded=0;whiteSpace=wrap;html=1;fillColor=#8D67A2;" vertex="1" parent="1">
          <mxGeometry x="625.38" y="640" width="60" height="20" as="geometry" />
        </mxCell>
        <mxCell id="CqZ42TjIi4QTHKU0aI6U-148" style="edgeStyle=orthogonalEdgeStyle;rounded=0;orthogonalLoop=1;jettySize=auto;html=1;entryX=1;entryY=0.5;entryDx=0;entryDy=0;" edge="1" parent="1" source="CqZ42TjIi4QTHKU0aI6U-145" target="CqZ42TjIi4QTHKU0aI6U-147">
          <mxGeometry relative="1" as="geometry" />
        </mxCell>
        <mxCell id="CqZ42TjIi4QTHKU0aI6U-149" value="MAY&lt;br&gt;SEND" style="edgeLabel;html=1;align=center;verticalAlign=middle;resizable=0;points=[];" vertex="1" connectable="0" parent="CqZ42TjIi4QTHKU0aI6U-148">
          <mxGeometry x="0.0936" relative="1" as="geometry">
            <mxPoint x="70" y="-9" as="offset" />
          </mxGeometry>
        </mxCell>
        <mxCell id="CqZ42TjIi4QTHKU0aI6U-145" value="Handle task" style="rounded=0;whiteSpace=wrap;html=1;fillColor=#785632;" vertex="1" parent="1">
          <mxGeometry x="726" y="730" width="120" height="20" as="geometry" />
        </mxCell>
        <mxCell id="CqZ42TjIi4QTHKU0aI6U-146" value="dispatch" style="html=1;verticalAlign=bottom;startArrow=oval;startFill=1;endArrow=block;startSize=8;curved=0;rounded=0;exitX=0;exitY=0.5;exitDx=0;exitDy=0;" edge="1" parent="1" source="CqZ42TjIi4QTHKU0aI6U-147">
          <mxGeometry width="60" relative="1" as="geometry">
            <mxPoint x="612" y="780" as="sourcePoint" />
            <mxPoint x="40" y="710" as="targetPoint" />
            <Array as="points" />
          </mxGeometry>
        </mxCell>
        <mxCell id="CqZ42TjIi4QTHKU0aI6U-147" value="RESPONSES" style="rounded=0;whiteSpace=wrap;html=1;fillColor=#8D67A2;" vertex="1" parent="1">
          <mxGeometry x="510" y="700" width="110" height="20" as="geometry" />
        </mxCell>
        <mxCell id="CqZ42TjIi4QTHKU0aI6U-150" value="" style="rounded=0;whiteSpace=wrap;html=1;" vertex="1" parent="1">
          <mxGeometry x="470" y="546" width="80" height="20" as="geometry" />
        </mxCell>
        <mxCell id="CqZ42TjIi4QTHKU0aI6U-151" value="&lt;font style=&quot;font-size: 9px;&quot;&gt;Receive queue N&lt;/font&gt;" style="text;align=center;fontStyle=1;verticalAlign=middle;spacingLeft=3;spacingRight=3;strokeColor=none;rotatable=0;points=[[0,0.5],[1,0.5]];portConstraint=eastwest;html=1;" vertex="1" parent="1">
          <mxGeometry x="470" y="566" width="80" height="16" as="geometry" />
        </mxCell>
        <mxCell id="CqZ42TjIi4QTHKU0aI6U-152" value="" style="rounded=0;whiteSpace=wrap;html=1;fillColor=#76608A;" vertex="1" parent="1">
          <mxGeometry x="540" y="546" width="10" height="20" as="geometry" />
        </mxCell>
        <mxCell id="CqZ42TjIi4QTHKU0aI6U-153" value="" style="rounded=0;whiteSpace=wrap;html=1;fillColor=#76608A;" vertex="1" parent="1">
          <mxGeometry x="530" y="546" width="10" height="20" as="geometry" />
        </mxCell>
        <mxCell id="CqZ42TjIi4QTHKU0aI6U-154" value="" style="rounded=0;whiteSpace=wrap;html=1;fillColor=#76608A;" vertex="1" parent="1">
          <mxGeometry x="520" y="546" width="10" height="20" as="geometry" />
        </mxCell>
        <mxCell id="CqZ42TjIi4QTHKU0aI6U-155" value="" style="rounded=0;whiteSpace=wrap;html=1;fillColor=#76608A;" vertex="1" parent="1">
          <mxGeometry x="510" y="546" width="10" height="20" as="geometry" />
        </mxCell>
        <mxCell id="CqZ42TjIi4QTHKU0aI6U-156" value="" style="rounded=0;whiteSpace=wrap;html=1;fillColor=#76608A;" vertex="1" parent="1">
          <mxGeometry x="500" y="546" width="10" height="20" as="geometry" />
        </mxCell>
        <mxCell id="CqZ42TjIi4QTHKU0aI6U-157" value="put" style="html=1;verticalAlign=bottom;endArrow=block;curved=0;rounded=0;exitX=1;exitY=0.5;exitDx=0;exitDy=0;entryX=0;entryY=0.5;entryDx=0;entryDy=0;" edge="1" parent="1" target="CqZ42TjIi4QTHKU0aI6U-150" source="CqZ42TjIi4QTHKU0aI6U-107">
          <mxGeometry width="80" relative="1" as="geometry">
            <mxPoint x="430" y="556" as="sourcePoint" />
            <mxPoint x="470" y="530" as="targetPoint" />
            <Array as="points">
              <mxPoint x="450" y="500" />
              <mxPoint x="450" y="556" />
            </Array>
          </mxGeometry>
        </mxCell>
        <mxCell id="CqZ42TjIi4QTHKU0aI6U-158" value="get" style="html=1;verticalAlign=bottom;endArrow=block;curved=0;rounded=0;exitX=1;exitY=0.5;exitDx=0;exitDy=0;" edge="1" parent="1" source="CqZ42TjIi4QTHKU0aI6U-152" target="CqZ42TjIi4QTHKU0aI6U-164">
          <mxGeometry width="80" relative="1" as="geometry">
            <mxPoint x="440" y="566" as="sourcePoint" />
            <mxPoint x="785" y="556" as="targetPoint" />
          </mxGeometry>
        </mxCell>
        <mxCell id="CqZ42TjIi4QTHKU0aI6U-164" value="WorkerThread N:&lt;br&gt;run()" style="shape=umlLifeline;perimeter=lifelinePerimeter;whiteSpace=wrap;html=1;container=0;dropTarget=0;collapsible=0;recursiveResize=0;outlineConnect=0;portConstraint=eastwest;newEdgeStyle={&quot;edgeStyle&quot;:&quot;elbowEdgeStyle&quot;,&quot;elbow&quot;:&quot;vertical&quot;,&quot;curved&quot;:0,&quot;rounded&quot;:0};fillColor=#2C4A42;" vertex="1" parent="1">
          <mxGeometry x="941.52" y="40" width="112.75" height="700" as="geometry" />
        </mxCell>
        <mxCell id="CqZ42TjIi4QTHKU0aI6U-165" value="" style="html=1;points=[[0,0,0,0,5],[0,1,0,0,-5],[1,0,0,0,5],[1,1,0,0,-5]];perimeter=orthogonalPerimeter;outlineConnect=0;targetShapes=umlLifeline;portConstraint=eastwest;newEdgeStyle={&quot;curved&quot;:0,&quot;rounded&quot;:0};" vertex="1" parent="CqZ42TjIi4QTHKU0aI6U-164">
          <mxGeometry x="51.25" y="70" width="10" height="340" as="geometry" />
        </mxCell>
        <mxCell id="CqZ42TjIi4QTHKU0aI6U-166" value="wait for &lt;br&gt;tasks" style="html=1;align=left;spacingLeft=2;endArrow=block;rounded=0;edgeStyle=orthogonalEdgeStyle;curved=0;rounded=0;entryX=1;entryY=1;entryDx=0;entryDy=-5;entryPerimeter=0;" edge="1" parent="CqZ42TjIi4QTHKU0aI6U-164" target="CqZ42TjIi4QTHKU0aI6U-165">
          <mxGeometry relative="1" as="geometry">
            <mxPoint x="57.25" y="50" as="sourcePoint" />
            <Array as="points">
              <mxPoint x="87" y="50" />
              <mxPoint x="87" y="405" />
            </Array>
            <mxPoint x="62.25" y="80" as="targetPoint" />
          </mxGeometry>
        </mxCell>
        <mxCell id="CqZ42TjIi4QTHKU0aI6U-167" value="" style="rounded=0;whiteSpace=wrap;html=1;" vertex="1" parent="1">
          <mxGeometry x="992.9" y="85" width="10" height="10" as="geometry" />
        </mxCell>
        <mxCell id="CqZ42TjIi4QTHKU0aI6U-172" style="edgeStyle=orthogonalEdgeStyle;rounded=0;orthogonalLoop=1;jettySize=auto;html=1;exitX=0;exitY=0.5;exitDx=0;exitDy=0;exitPerimeter=0;endArrow=none;endFill=0;" edge="1" parent="1" source="CqZ42TjIi4QTHKU0aI6U-168">
          <mxGeometry relative="1" as="geometry">
            <mxPoint x="709.9999999999998" y="650.1724137931035" as="targetPoint" />
          </mxGeometry>
        </mxCell>
        <mxCell id="CqZ42TjIi4QTHKU0aI6U-168" value="&lt;font style=&quot;font-size: 9px;&quot;&gt;Select&lt;br&gt;Resource&lt;/font&gt;" style="strokeWidth=2;html=1;shape=mxgraph.flowchart.decision;whiteSpace=wrap;fillColor=#785632;" vertex="1" parent="1">
          <mxGeometry x="955.59" y="625" width="84.62" height="50" as="geometry" />
        </mxCell>
        <mxCell id="CqZ42TjIi4QTHKU0aI6U-171" style="edgeStyle=orthogonalEdgeStyle;rounded=0;orthogonalLoop=1;jettySize=auto;html=1;endArrow=none;endFill=0;" edge="1" parent="1" source="CqZ42TjIi4QTHKU0aI6U-170">
          <mxGeometry relative="1" as="geometry">
            <mxPoint x="660" y="710" as="targetPoint" />
            <Array as="points">
              <mxPoint x="740" y="710" />
              <mxPoint x="740" y="710" />
            </Array>
          </mxGeometry>
        </mxCell>
        <mxCell id="CqZ42TjIi4QTHKU0aI6U-170" value="Handle task" style="rounded=0;whiteSpace=wrap;html=1;fillColor=#785632;" vertex="1" parent="1">
          <mxGeometry x="941.52" y="700" width="120" height="20" as="geometry" />
        </mxCell>
        <mxCell id="CqZ42TjIi4QTHKU0aI6U-176" value="" style="html=1;verticalAlign=bottom;startArrow=oval;startFill=1;endArrow=block;startSize=8;curved=0;rounded=0;exitX=0;exitY=0.5;exitDx=0;exitDy=0;" edge="1" parent="1" source="CqZ42TjIi4QTHKU0aI6U-104" target="CqZ42TjIi4QTHKU0aI6U-175">
          <mxGeometry width="60" relative="1" as="geometry">
            <mxPoint x="335" y="455" as="sourcePoint" />
            <mxPoint x="40" y="455" as="targetPoint" />
            <Array as="points" />
          </mxGeometry>
        </mxCell>
        <mxCell id="CqZ42TjIi4QTHKU0aI6U-175" value="Encode" style="rounded=0;whiteSpace=wrap;html=1;fillColor=#76608A;" vertex="1" parent="1">
          <mxGeometry x="250" y="445" width="60" height="20" as="geometry" />
        </mxCell>
        <mxCell id="CqZ42TjIi4QTHKU0aI6U-178" value="" style="html=1;verticalAlign=bottom;startArrow=oval;startFill=1;endArrow=block;startSize=8;curved=0;rounded=0;exitX=0;exitY=0.5;exitDx=0;exitDy=0;" edge="1" parent="1" source="CqZ42TjIi4QTHKU0aI6U-144" target="CqZ42TjIi4QTHKU0aI6U-177">
          <mxGeometry width="60" relative="1" as="geometry">
            <mxPoint x="625" y="650" as="sourcePoint" />
            <mxPoint x="40" y="650" as="targetPoint" />
            <Array as="points" />
          </mxGeometry>
        </mxCell>
        <mxCell id="CqZ42TjIi4QTHKU0aI6U-177" value="Encode" style="rounded=0;whiteSpace=wrap;html=1;fillColor=#76608A;" vertex="1" parent="1">
          <mxGeometry x="512" y="640" width="60" height="20" as="geometry" />
        </mxCell>
        <mxCell id="CqZ42TjIi4QTHKU0aI6U-179" value="Encode" style="rounded=0;whiteSpace=wrap;html=1;fillColor=#76608A;" vertex="1" parent="1">
          <mxGeometry x="390" y="700" width="60" height="20" as="geometry" />
        </mxCell>
        <mxCell id="CqZ42TjIi4QTHKU0aI6U-180" value="Encode" style="rounded=0;whiteSpace=wrap;html=1;fillColor=#76608A;" vertex="1" parent="1">
          <mxGeometry x="140" y="240" width="60" height="20" as="geometry" />
        </mxCell>
        <mxCell id="CqZ42TjIi4QTHKU0aI6U-187" style="edgeStyle=orthogonalEdgeStyle;rounded=0;orthogonalLoop=1;jettySize=auto;html=1;exitX=0.5;exitY=1;exitDx=0;exitDy=0;entryX=0.853;entryY=0;entryDx=0;entryDy=0;entryPerimeter=0;" edge="1" parent="1" source="CqZ42TjIi4QTHKU0aI6U-185" target="CqZ42TjIi4QTHKU0aI6U-107">
          <mxGeometry relative="1" as="geometry" />
        </mxCell>
        <mxCell id="CqZ42TjIi4QTHKU0aI6U-185" value="NON" style="rounded=0;whiteSpace=wrap;html=1;fillColor=#76608A;" vertex="1" parent="1">
          <mxGeometry x="420" y="380" width="60" height="20" as="geometry" />
        </mxCell>
        <mxCell id="CqZ42TjIi4QTHKU0aI6U-186" style="edgeStyle=orthogonalEdgeStyle;rounded=0;orthogonalLoop=1;jettySize=auto;html=1;exitX=0.625;exitY=1;exitDx=0;exitDy=0;entryX=0.5;entryY=0;entryDx=0;entryDy=0;" edge="1" parent="1" source="CqZ42TjIi4QTHKU0aI6U-93" target="CqZ42TjIi4QTHKU0aI6U-185">
          <mxGeometry relative="1" as="geometry">
            <mxPoint x="375" y="350" as="sourcePoint" />
            <mxPoint x="375" y="380" as="targetPoint" />
            <Array as="points">
              <mxPoint x="375" y="360" />
              <mxPoint x="450" y="360" />
            </Array>
          </mxGeometry>
        </mxCell>
        <mxCell id="CqZ42TjIi4QTHKU0aI6U-188" style="edgeStyle=orthogonalEdgeStyle;rounded=0;orthogonalLoop=1;jettySize=auto;html=1;entryX=0.458;entryY=0;entryDx=0;entryDy=0;entryPerimeter=0;" edge="1" parent="1" source="CqZ42TjIi4QTHKU0aI6U-104" target="CqZ42TjIi4QTHKU0aI6U-107">
          <mxGeometry relative="1" as="geometry" />
        </mxCell>
        <mxCell id="CqZ42TjIi4QTHKU0aI6U-189" value="&lt;font style=&quot;font-size: 16px;&quot;&gt;COAP WORKER POOL&lt;/font&gt;" style="rounded=0;whiteSpace=wrap;html=1;fillColor=#2C4A42;" vertex="1" parent="1">
          <mxGeometry x="80" y="-20" width="1000" height="40" as="geometry" />
        </mxCell>
      </root>
    </mxGraphModel>
  </diagram>
</mxfile>
